<svg width="18" height="18" viewBox="0 0 18 18" fill="none" xmlns="http://www.w3.org/2000/svg">
<path d="M17.4727 6.36328H16.9453V5.83594C16.9453 5.54446 16.7094 5.30859 16.418 5.30859C16.1265 5.30859 15.8906 5.54446 15.8906 5.83594V6.36328H15.3633C15.0718 6.36328 14.8359 6.59914 14.8359 6.89062C14.8359 7.18211 15.0718 7.41797 15.3633 7.41797H15.8906V7.94531C15.8906 8.23679 16.1265 8.47266 16.418 8.47266C16.7094 8.47266 16.9453 8.23679 16.9453 7.94531V7.41797H17.4727C17.7641 7.41797 18 7.18211 18 6.89062C18 6.59914 17.7641 6.36328 17.4727 6.36328Z" fill="#FAFAFF"/>
<path d="M15.3281 4.25391C15.6194 4.25391 15.8555 4.01781 15.8555 3.72656C15.8555 3.43532 15.6194 3.19922 15.3281 3.19922C15.0369 3.19922 14.8008 3.43532 14.8008 3.72656C14.8008 4.01781 15.0369 4.25391 15.3281 4.25391Z" fill="#FAFAFF"/>
<path d="M13.2188 7.41797C13.51 7.41797 13.7461 7.18187 13.7461 6.89062C13.7461 6.59938 13.51 6.36328 13.2188 6.36328C12.9275 6.36328 12.6914 6.59938 12.6914 6.89062C12.6914 7.18187 12.9275 7.41797 13.2188 7.41797Z" fill="#FAFAFF"/>
<path d="M8.62713 12.8459C8.83311 12.6399 9.16685 12.6399 9.37283 12.8459L9.52734 13.0004V8.47266H8.47266V13.0004L8.62713 12.8459Z" fill="#FAFAFF"/>
<path d="M14.2734 8.47266H10.582V14.2734C10.582 14.4866 10.4538 14.6792 10.2565 14.7606C10.1911 14.7878 10.1226 14.8007 10.0546 14.8007C9.91768 14.8007 9.78275 14.7472 9.68182 14.6462L8.99997 13.9644L8.31812 14.6462C8.1667 14.7977 7.94114 14.8424 7.74338 14.7606C7.54616 14.6792 7.41791 14.4866 7.41791 14.2734V8.47266H7.12225L3.19922 10.7377V17.4726C3.19922 17.7641 3.43508 17.9999 3.72656 17.9999H14.2734C14.5649 17.9999 14.8007 17.7641 14.8007 17.4726V9C14.8007 8.70852 14.5649 8.47266 14.2734 8.47266Z" fill="#FAFAFF"/>
<path d="M13.0342 3.2323L11.9796 1.40559C11.9096 1.28458 11.7942 1.19599 11.6593 1.15995C11.5249 1.12441 11.3802 1.14297 11.2592 1.21248L9.63677 2.14918C9.63807 1.78123 9.55085 1.38225 9.36196 1.05529C9.08025 0.567083 8.62555 0.217948 8.08119 0.072191C7.53789 -0.0725113 6.96882 0.00163284 6.48064 0.282811C5.80448 0.673676 5.40022 1.40134 5.42698 2.18205L5.4306 2.29328C5.4306 2.29739 5.4306 2.30101 5.43113 2.30513L5.48263 3.86275L4.18231 3.05251L4.18024 3.05096L4.08549 2.99172C3.4222 2.57924 2.59101 2.56377 1.91383 2.95464C1.42562 3.23634 1.07649 3.69105 0.93073 4.2354C0.784973 4.77976 0.85968 5.34827 1.14135 5.83648C1.33383 6.16923 1.60478 6.42795 1.91633 6.60672L0.263785 7.54057C0.0115051 7.68625 -0.0748733 8.00874 0.070743 8.26102L1.1604 10.0879C1.30602 10.3401 1.62851 10.4265 1.88079 10.2809L12.8412 3.95268C13.0935 3.8071 13.1798 3.48458 13.0342 3.2323ZM3.49522 5.69508C2.99112 5.98502 2.3452 5.81265 2.05488 5.30918C1.76393 4.80553 1.93746 4.15869 2.4411 3.86827C2.77945 3.67206 3.19608 3.68029 3.52722 3.8868L5.0179 4.81594L3.49522 5.69508ZM8.55397 2.41805C8.48141 2.6897 8.30696 2.91712 8.06319 3.05771L6.54005 3.93711L6.48064 2.14598C6.46777 1.75511 6.67017 1.39153 7.00798 1.19634C7.25105 1.05473 7.53532 1.01817 7.80827 1.09077C8.08017 1.16389 8.30781 1.33848 8.44839 1.58257C8.58951 1.82672 8.62709 2.14562 8.55397 2.41805Z" fill="#FAFAFF"/>
</svg>
