<svg width="84" height="16" viewBox="0 0 84 16" fill="none" xmlns="http://www.w3.org/2000/svg">
<path d="M10.3276 8.46875C10.1098 9.53722 9.13175 10.3438 8 10.3438C6.86825 10.3438 5.92147 9.53722 5.70369 8.46875H4.76613C4.99603 10.0547 6.35141 11.2812 8 11.2812C9.64859 11.2812 11.0352 10.0547 11.2651 8.46875H10.3276Z" fill="#565656"/>
<path d="M12.2026 8.46875C11.966 10.5723 10.1658 12.2188 8 12.2188C5.83416 12.2188 4.06528 10.5723 3.82862 8.46875H0V8.9375C0 9.13937 0.129562 9.31881 0.320906 9.38244L2.24959 10.0119C2.33063 10.2417 2.41622 10.4509 2.50778 10.644L1.61787 12.4321C1.52816 12.6124 1.56384 12.8298 1.70622 12.9722L3.02778 14.2938C3.17106 14.4371 3.38803 14.4709 3.56794 14.3821L5.35597 13.4922C5.54916 13.5838 5.75834 13.6694 5.98812 13.7504L6.61756 15.6791C6.68119 15.8704 6.86062 16 7.0625 16H8.96875C9.17062 16 9.35006 15.8704 9.41369 15.6791L10.0431 13.7504C10.2729 13.6694 10.4821 13.5838 10.6753 13.4922L12.4633 14.3821C12.6432 14.4714 12.8607 14.4371 13.0035 14.2938L14.325 12.9722C14.4674 12.8298 14.5031 12.6124 14.4134 12.4321L13.5235 10.644C13.615 10.4508 13.7006 10.2417 13.7817 10.0119L15.6791 9.38244C15.8704 9.31881 16 9.13937 16 8.9375V8.46875H12.2026Z" fill="#565656"/>
<path d="M6.68009 8.46875C6.87425 9.01319 7.38969 9.40625 8 9.40625C8.61031 9.40625 9.157 9.01319 9.35116 8.46875H6.68009Z" fill="#565656"/>
<path d="M8 0C6.96591 0 6.125 0.840906 6.125 1.875C6.125 2.90909 6.96591 3.75 8 3.75C9.03409 3.75 9.90625 2.90909 9.90625 1.875C9.90625 0.840906 9.03409 0 8 0Z" fill="#565656"/>
<path d="M12.7188 0C11.6847 0 10.8438 0.840906 10.8438 1.875C10.8438 2.90909 11.6847 3.75 12.7188 3.75C13.7528 3.75 14.5938 2.90909 14.5938 1.875C14.5938 0.840906 13.7528 0 12.7188 0Z" fill="#565656"/>
<path d="M3.3125 0C2.27841 0 1.4375 0.840906 1.4375 1.875C1.4375 2.90909 2.27841 3.75 3.3125 3.75C4.34659 3.75 5.1875 2.90909 5.1875 1.875C5.1875 0.840906 4.34659 0 3.3125 0Z" fill="#565656"/>
<path d="M14.3177 4.18384C13.863 4.49975 13.3132 4.6875 12.7188 4.6875C12.1268 4.6875 11.5787 4.50175 11.1251 4.18825C10.9195 4.30628 10.7219 4.439 10.543 4.59903C11.4546 5.28047 12.0875 6.34472 12.2214 7.53125H16V7.0625C16 5.83678 15.3162 4.74712 14.3177 4.18384Z" fill="#565656"/>
<path d="M8 4.6875C6.34975 4.6875 4.98012 5.94328 4.75216 7.53125H11.2791C11.0511 5.94328 9.65025 4.6875 8 4.6875Z" fill="#565656"/>
<path d="M4.90616 4.18825C4.45256 4.50175 3.90444 4.6875 3.3125 4.6875C2.71809 4.6875 2.16825 4.49975 1.71359 4.18384C0.715031 4.74712 0 5.83678 0 7.0625V7.53125H3.80988C3.94375 6.34472 4.57666 5.28047 5.48825 4.59903C5.30931 4.439 5.11175 4.30628 4.90616 4.18825Z" fill="#565656"/>
<path d="M27.8496 14.1992C27.2324 14.1992 26.6934 14.0996 26.2324 13.9004C25.7754 13.6973 25.4121 13.4199 25.1426 13.0684C24.877 12.7129 24.7227 12.3066 24.6797 11.8496L24.6738 11.7852H25.7285L25.7344 11.8496C25.7617 12.1309 25.8691 12.375 26.0566 12.582C26.248 12.7852 26.502 12.9434 26.8184 13.0566C27.1387 13.1699 27.502 13.2266 27.9082 13.2266C28.291 13.2266 28.6309 13.166 28.9277 13.0449C29.2285 12.9199 29.4648 12.748 29.6367 12.5293C29.8086 12.3105 29.8945 12.0586 29.8945 11.7734V11.7676C29.8945 11.416 29.7656 11.1211 29.5078 10.8828C29.25 10.6406 28.8301 10.4551 28.248 10.3262L27.3105 10.1211C26.4629 9.93359 25.8457 9.64453 25.459 9.25391C25.0762 8.85938 24.8848 8.35547 24.8848 7.74219V7.73633C24.8887 7.26758 25.0156 6.85352 25.2656 6.49414C25.5195 6.13477 25.8691 5.85352 26.3145 5.65039C26.7637 5.44727 27.2793 5.3457 27.8613 5.3457C28.4238 5.3457 28.9219 5.44727 29.3555 5.65039C29.7891 5.84961 30.1328 6.11914 30.3867 6.45898C30.6445 6.79883 30.7871 7.17969 30.8145 7.60156L30.8203 7.68359H29.7656L29.7539 7.60742C29.7148 7.35742 29.6133 7.13672 29.4492 6.94531C29.2852 6.75 29.0664 6.5957 28.793 6.48242C28.5195 6.36914 28.1992 6.31445 27.832 6.31836C27.4805 6.31836 27.1641 6.37305 26.8828 6.48242C26.6016 6.5918 26.377 6.75 26.209 6.95703C26.0449 7.16016 25.9629 7.41016 25.9629 7.70703V7.71289C25.9629 8.04883 26.0879 8.33203 26.3379 8.5625C26.5879 8.79297 27 8.9707 27.5742 9.0957L28.5117 9.30664C29.1016 9.43555 29.5762 9.60352 29.9355 9.81055C30.2949 10.0176 30.5566 10.2715 30.7207 10.5723C30.8887 10.8691 30.9727 11.2207 30.9727 11.627V11.6328C30.9727 12.1602 30.8438 12.6152 30.5859 12.998C30.3281 13.3809 29.9648 13.6777 29.4961 13.8887C29.0273 14.0957 28.4785 14.1992 27.8496 14.1992ZM36.082 14.1992C35.3828 14.1992 34.7812 14.0684 34.2773 13.8066C33.7773 13.5449 33.3926 13.1816 33.123 12.7168C32.8535 12.248 32.7188 11.707 32.7188 11.0938V5.54492H33.7734V11.0234C33.7734 11.457 33.8633 11.8398 34.043 12.1719C34.2266 12.5 34.4902 12.7578 34.834 12.9453C35.1777 13.1328 35.5938 13.2266 36.082 13.2266C36.5703 13.2266 36.9844 13.1328 37.3242 12.9453C37.668 12.7578 37.9297 12.5 38.1094 12.1719C38.2891 11.8398 38.3789 11.457 38.3789 11.0234V5.54492H39.4336V11.0938C39.4336 11.707 39.2988 12.248 39.0293 12.7168C38.7637 13.1816 38.3809 13.5449 37.8809 13.8066C37.3809 14.0684 36.7812 14.1992 36.082 14.1992ZM42.1055 10.9824V10.0449H44.4961C45.1016 10.0449 45.5703 9.88867 45.9023 9.57617C46.2344 9.25977 46.4004 8.82422 46.4004 8.26953V8.25781C46.4004 7.69922 46.2344 7.26367 45.9023 6.95117C45.5703 6.63867 45.1016 6.48242 44.4961 6.48242H42.1055V5.54492H44.7656C45.2969 5.54492 45.7656 5.6582 46.1719 5.88477C46.5781 6.11133 46.8965 6.42773 47.127 6.83398C47.3613 7.24023 47.4785 7.71094 47.4785 8.24609V8.25781C47.4785 8.79297 47.3613 9.26562 47.127 9.67578C46.8965 10.0859 46.5781 10.4062 46.1719 10.6367C45.7656 10.8672 45.2969 10.9824 44.7656 10.9824H42.1055ZM41.5781 14V5.54492H42.6328V14H41.5781ZM49.7344 10.9824V10.0449H52.125C52.7305 10.0449 53.1992 9.88867 53.5312 9.57617C53.8633 9.25977 54.0293 8.82422 54.0293 8.26953V8.25781C54.0293 7.69922 53.8633 7.26367 53.5312 6.95117C53.1992 6.63867 52.7305 6.48242 52.125 6.48242H49.7344V5.54492H52.3945C52.9258 5.54492 53.3945 5.6582 53.8008 5.88477C54.207 6.11133 54.5254 6.42773 54.7559 6.83398C54.9902 7.24023 55.1074 7.71094 55.1074 8.24609V8.25781C55.1074 8.79297 54.9902 9.26562 54.7559 9.67578C54.5254 10.0859 54.207 10.4062 53.8008 10.6367C53.3945 10.8672 52.9258 10.9824 52.3945 10.9824H49.7344ZM49.207 14V5.54492H50.2617V14H49.207ZM60.3867 14.1992C59.5781 14.1992 58.8848 14.0195 58.3066 13.6602C57.7285 13.2969 57.2832 12.7832 56.9707 12.1191C56.6621 11.4551 56.5078 10.6738 56.5078 9.77539V9.76367C56.5078 8.85742 56.6641 8.07422 56.9766 7.41406C57.293 6.75391 57.7402 6.24414 58.3184 5.88477C58.9004 5.52539 59.5898 5.3457 60.3867 5.3457C61.1875 5.3457 61.877 5.52539 62.4551 5.88477C63.0371 6.24414 63.4844 6.75586 63.7969 7.41992C64.1094 8.08008 64.2656 8.86133 64.2656 9.76367V9.77539C64.2656 10.6738 64.1094 11.4551 63.7969 12.1191C63.4883 12.7793 63.043 13.291 62.4609 13.6543C61.8828 14.0176 61.1914 14.1992 60.3867 14.1992ZM60.3867 13.2266C60.9648 13.2266 61.4629 13.084 61.8809 12.7988C62.2988 12.5137 62.6211 12.1133 62.8477 11.5977C63.0742 11.0781 63.1875 10.4707 63.1875 9.77539V9.76367C63.1875 9.06055 63.0742 8.45117 62.8477 7.93555C62.6211 7.41992 62.2988 7.02148 61.8809 6.74023C61.4629 6.45898 60.9648 6.31836 60.3867 6.31836C59.8125 6.31836 59.3164 6.45898 58.8984 6.74023C58.4805 7.02148 58.1562 7.41992 57.9258 7.93555C57.6992 8.45117 57.5859 9.06055 57.5859 9.76367V9.77539C57.5859 10.4707 57.6973 11.0781 57.9199 11.5977C58.1426 12.1133 58.4629 12.5137 58.8809 12.7988C59.2988 13.084 59.8008 13.2266 60.3867 13.2266ZM66.0938 14V5.54492H69.3223C69.8652 5.54492 70.3379 5.65039 70.7402 5.86133C71.1465 6.06836 71.4609 6.35938 71.6836 6.73438C71.9062 7.10938 72.0176 7.55078 72.0176 8.05859V8.07031C72.0176 8.65625 71.8672 9.16406 71.5664 9.59375C71.2656 10.0234 70.8496 10.3223 70.3184 10.4902L72.2754 14H71.0391L69.2285 10.6543C69.2207 10.6543 69.2109 10.6543 69.1992 10.6543C69.1875 10.6543 69.1777 10.6543 69.1699 10.6543H67.1484V14H66.0938ZM67.1484 9.7168H69.2285C69.7715 9.7168 70.1895 9.57812 70.4824 9.30078C70.7793 9.01953 70.9277 8.62109 70.9277 8.10547V8.09375C70.9277 7.58984 70.7734 7.19531 70.4648 6.91016C70.1562 6.625 69.7285 6.48242 69.1816 6.48242H67.1484V9.7168ZM76.1309 14V6.49414H73.4062V5.54492H79.9102V6.49414H77.1855V14H76.1309ZM81.7734 14.0586C81.5664 14.0586 81.3867 13.9844 81.2344 13.8359C81.0859 13.6836 81.0117 13.5039 81.0117 13.2969C81.0117 13.0859 81.0859 12.9062 81.2344 12.7578C81.3867 12.6094 81.5664 12.5352 81.7734 12.5352C81.9844 12.5352 82.1641 12.6094 82.3125 12.7578C82.4609 12.9062 82.5352 13.0859 82.5352 13.2969C82.5352 13.5039 82.4609 13.6836 82.3125 13.8359C82.1641 13.9844 81.9844 14.0586 81.7734 14.0586ZM81.7734 9.52344C81.5664 9.52344 81.3867 9.44922 81.2344 9.30078C81.0859 9.14844 81.0117 8.96875 81.0117 8.76172C81.0117 8.55078 81.0859 8.37109 81.2344 8.22266C81.3867 8.07422 81.5664 8 81.7734 8C81.9844 8 82.1641 8.07422 82.3125 8.22266C82.4609 8.37109 82.5352 8.55078 82.5352 8.76172C82.5352 8.96875 82.4609 9.14844 82.3125 9.30078C82.1641 9.44922 81.9844 9.52344 81.7734 9.52344Z" fill="#565656"/>
</svg>
