<svg width="74" height="16" viewBox="0 0 74 16" fill="none" xmlns="http://www.w3.org/2000/svg">
<path d="M6.17794 7.54688H2.34375C2.08488 7.54688 1.875 7.337 1.875 7.07812C1.875 6.81925 2.08488 6.60938 2.34375 6.60938L8.07159 6.58125C8.24719 5.64806 8.97791 4.90881 9.90625 4.71956V1.45312C9.90625 1.19425 9.69637 0.984375 9.4375 0.984375H0.46875C0.209875 0.984375 0 1.19425 0 1.45312V12.6719C0 12.9307 0.209875 13.1406 0.46875 13.1406H6.09378V10.7483C5.95 10.4393 5.875 10.1003 5.875 9.75281V8.6125C5.875 8.22191 5.98609 7.85687 6.17794 7.54688ZM2.34375 2.85941H7.5625C7.82137 2.85941 8.03125 3.06928 8.03125 3.32816C8.03125 3.58703 7.82137 3.79691 7.5625 3.79691H2.34375C2.08488 3.79691 1.875 3.58703 1.875 3.32816C1.875 3.06928 2.08488 2.85941 2.34375 2.85941ZM2.34375 4.73441H7.5625C7.82137 4.73441 8.03125 4.94428 8.03125 5.20316C8.03125 5.46203 7.82137 5.67191 7.5625 5.67191H2.34375C2.08488 5.67191 1.875 5.46203 1.875 5.20316C1.875 4.94428 2.08488 4.73441 2.34375 4.73441ZM3.46875 9.42191H2.34375C2.08488 9.42191 1.875 9.21203 1.875 8.95316C1.875 8.69428 2.08488 8.48441 2.34375 8.48441H3.46875C3.72762 8.48441 3.9375 8.69428 3.9375 8.95316C3.9375 9.21203 3.72762 9.42191 3.46875 9.42191Z" fill="#565656"/>
<path d="M10.9082 11.7969H11.8457V12.7344H10.9082V11.7969Z" fill="#565656"/>
<path d="M12.7832 12.6606V13.2031C12.7832 13.462 12.5733 13.6719 12.3144 13.6719H10.4394C10.1805 13.6719 9.97066 13.462 9.97066 13.2031V12.6684L7.59456 12.0119C7.39284 11.9562 7.20438 11.8762 7.03128 11.776V13.7344C7.03128 14.4408 7.60606 15.0156 8.31253 15.0156H14.5C15.2065 15.0156 15.7812 14.4408 15.7812 13.7344V11.771C15.6035 11.8737 15.4096 11.9552 15.2017 12.011L12.7832 12.6606Z" fill="#565656"/>
<path d="M9.07203 6.58125H13.7404C13.5312 6.06688 13.0262 5.70312 12.4375 5.70312H10.375C9.78634 5.70312 9.28131 6.06684 9.07203 6.58125Z" fill="#565656"/>
<path d="M14.9062 7.51875H7.90625C7.30316 7.51875 6.8125 8.00941 6.8125 8.6125V9.75284C6.8125 10.3931 7.22713 10.9378 7.84425 11.1083L9.97066 11.6958V11.3281C9.97066 11.0693 10.1805 10.8594 10.4394 10.8594H12.3144C12.5733 10.8594 12.7832 11.0693 12.7832 11.3281V11.6898L14.9585 11.1056C15.5814 10.9383 16 10.3925 16 9.74747V8.6125C16 8.00941 15.5093 7.51875 14.9062 7.51875Z" fill="#565656"/>
<path d="M28.6289 14.1992C27.8203 14.1992 27.127 14.0195 26.5488 13.6602C25.9707 13.2969 25.5254 12.7832 25.2129 12.1191C24.9043 11.4551 24.75 10.6738 24.75 9.77539V9.76367C24.75 8.85742 24.9062 8.07422 25.2188 7.41406C25.5352 6.75391 25.9824 6.24414 26.5605 5.88477C27.1426 5.52539 27.832 5.3457 28.6289 5.3457C29.4297 5.3457 30.1191 5.52539 30.6973 5.88477C31.2793 6.24414 31.7266 6.75586 32.0391 7.41992C32.3516 8.08008 32.5078 8.86133 32.5078 9.76367V9.77539C32.5078 10.6738 32.3516 11.4551 32.0391 12.1191C31.7305 12.7793 31.2852 13.291 30.7031 13.6543C30.125 14.0176 29.4336 14.1992 28.6289 14.1992ZM28.6289 13.2266C29.207 13.2266 29.7051 13.084 30.123 12.7988C30.541 12.5137 30.8633 12.1133 31.0898 11.5977C31.3164 11.0781 31.4297 10.4707 31.4297 9.77539V9.76367C31.4297 9.06055 31.3164 8.45117 31.0898 7.93555C30.8633 7.41992 30.541 7.02148 30.123 6.74023C29.7051 6.45898 29.207 6.31836 28.6289 6.31836C28.0547 6.31836 27.5586 6.45898 27.1406 6.74023C26.7227 7.02148 26.3984 7.41992 26.168 7.93555C25.9414 8.45117 25.8281 9.06055 25.8281 9.76367V9.77539C25.8281 10.4707 25.9395 11.0781 26.1621 11.5977C26.3848 12.1133 26.7051 12.5137 27.123 12.7988C27.541 13.084 28.043 13.2266 28.6289 13.2266ZM34.3359 14V5.54492H39.4688V6.49414H35.3906V9.40039H39.1348V10.3379H35.3906V14H34.3359ZM41.2031 14V5.54492H46.4414V6.49414H42.2578V9.20703H46.2246V10.1445H42.2578V13.0508H46.4414V14H41.2031ZM48.3516 14V5.54492H51.5801C52.123 5.54492 52.5957 5.65039 52.998 5.86133C53.4043 6.06836 53.7188 6.35938 53.9414 6.73438C54.1641 7.10938 54.2754 7.55078 54.2754 8.05859V8.07031C54.2754 8.65625 54.125 9.16406 53.8242 9.59375C53.5234 10.0234 53.1074 10.3223 52.5762 10.4902L54.5332 14H53.2969L51.4863 10.6543C51.4785 10.6543 51.4688 10.6543 51.457 10.6543C51.4453 10.6543 51.4355 10.6543 51.4277 10.6543H49.4062V14H48.3516ZM49.4062 9.7168H51.4863C52.0293 9.7168 52.4473 9.57812 52.7402 9.30078C53.0371 9.01953 53.1855 8.62109 53.1855 8.10547V8.09375C53.1855 7.58984 53.0312 7.19531 52.7227 6.91016C52.4141 6.625 51.9863 6.48242 51.4395 6.48242H49.4062V9.7168ZM58.3887 14V6.49414H55.6641V5.54492H62.168V6.49414H59.4434V14H58.3887ZM62.127 14L65.2441 5.54492H66.0527V6.91016H65.7188L63.2344 14H62.127ZM63.5391 11.5801L63.8672 10.6836H67.6875L68.0156 11.5801H63.5391ZM68.2969 14L65.8125 6.91016V5.54492H66.2871L69.4043 14H68.2969ZM71.5898 14.0586C71.3828 14.0586 71.2031 13.9844 71.0508 13.8359C70.9023 13.6836 70.8281 13.5039 70.8281 13.2969C70.8281 13.0859 70.9023 12.9062 71.0508 12.7578C71.2031 12.6094 71.3828 12.5352 71.5898 12.5352C71.8008 12.5352 71.9805 12.6094 72.1289 12.7578C72.2773 12.9062 72.3516 13.0859 72.3516 13.2969C72.3516 13.5039 72.2773 13.6836 72.1289 13.8359C71.9805 13.9844 71.8008 14.0586 71.5898 14.0586ZM71.5898 9.52344C71.3828 9.52344 71.2031 9.44922 71.0508 9.30078C70.9023 9.14844 70.8281 8.96875 70.8281 8.76172C70.8281 8.55078 70.9023 8.37109 71.0508 8.22266C71.2031 8.07422 71.3828 8 71.5898 8C71.8008 8 71.9805 8.07422 72.1289 8.22266C72.2773 8.37109 72.3516 8.55078 72.3516 8.76172C72.3516 8.96875 72.2773 9.14844 72.1289 9.30078C71.9805 9.44922 71.8008 9.52344 71.5898 9.52344Z" fill="#565656"/>
</svg>
