<svg width="73" height="16" viewBox="0 0 73 16" fill="none" xmlns="http://www.w3.org/2000/svg">
<path d="M7.65625 9.04019H16V5.27832H7.65625V9.04019ZM11.2994 6.69051H14.7066V7.62801H11.2994V6.69051ZM9.06844 6.69051H10.0059V7.62801H9.06844V6.69051Z" fill="#565656"/>
<path d="M7.65625 0.579102V4.34098H16V0.579102H7.65625ZM10.0059 2.92879H9.06844V1.99129H10.0059V2.92879ZM14.7066 2.92879H11.2994V1.99129H14.7066V2.92879Z" fill="#565656"/>
<path d="M13.7161 12.1276C13.5686 12.1051 13.4214 12.1419 13.302 12.231L10.5945 14.2485H7.98079C7.58954 14.2476 7.19923 14.0969 6.90142 13.7991L4.64048 11.5382L5.30361 10.8754L7.56454 13.1363C7.93651 13.51 8.58548 13.2417 8.58329 12.7141C8.58329 12.5548 8.52111 12.4048 8.40861 12.2919L5.68861 9.57194H2.33236V12.5263L5.48923 15.421H10.8699L13.9639 13.1204C14.3559 12.8297 14.1994 12.1983 13.7161 12.1276Z" fill="#565656"/>
<path d="M0 8.53809H1.395V13.5625H0V8.53809Z" fill="#565656"/>
<path d="M28.4297 14.1992C27.7305 14.1992 27.1289 14.0684 26.625 13.8066C26.125 13.5449 25.7402 13.1816 25.4707 12.7168C25.2012 12.248 25.0664 11.707 25.0664 11.0938V5.54492H26.1211V11.0234C26.1211 11.457 26.2109 11.8398 26.3906 12.1719C26.5742 12.5 26.8379 12.7578 27.1816 12.9453C27.5254 13.1328 27.9414 13.2266 28.4297 13.2266C28.918 13.2266 29.332 13.1328 29.6719 12.9453C30.0156 12.7578 30.2773 12.5 30.457 12.1719C30.6367 11.8398 30.7266 11.457 30.7266 11.0234V5.54492H31.7812V11.0938C31.7812 11.707 31.6465 12.248 31.377 12.7168C31.1113 13.1816 30.7285 13.5449 30.2285 13.8066C29.7285 14.0684 29.1289 14.1992 28.4297 14.1992ZM34.4531 10.9824V10.0449H36.8438C37.4492 10.0449 37.918 9.88867 38.25 9.57617C38.582 9.25977 38.748 8.82422 38.748 8.26953V8.25781C38.748 7.69922 38.582 7.26367 38.25 6.95117C37.918 6.63867 37.4492 6.48242 36.8438 6.48242H34.4531V5.54492H37.1133C37.6445 5.54492 38.1133 5.6582 38.5195 5.88477C38.9258 6.11133 39.2441 6.42773 39.4746 6.83398C39.709 7.24023 39.8262 7.71094 39.8262 8.24609V8.25781C39.8262 8.79297 39.709 9.26562 39.4746 9.67578C39.2441 10.0859 38.9258 10.4062 38.5195 10.6367C38.1133 10.8672 37.6445 10.9824 37.1133 10.9824H34.4531ZM33.9258 14V5.54492H34.9805V14H33.9258ZM43.752 14V6.49414H41.0273V5.54492H47.5312V6.49414H44.8066V14H43.752ZM49.1602 14V5.54492H50.2148V14H49.1602ZM52.3711 14V5.54492H53.5957L56.4902 12.5996H56.584L59.4785 5.54492H60.7031V14H59.7188V7.54297H59.2031L60.3867 5.7793L56.9824 14H56.0918L52.6934 5.7793L53.8711 7.54297H53.3555V14H52.3711ZM62.8594 14V5.54492H68.0977V6.49414H63.9141V9.20703H67.8809V10.1445H63.9141V13.0508H68.0977V14H62.8594ZM70.7109 14.0586C70.5039 14.0586 70.3242 13.9844 70.1719 13.8359C70.0234 13.6836 69.9492 13.5039 69.9492 13.2969C69.9492 13.0859 70.0234 12.9062 70.1719 12.7578C70.3242 12.6094 70.5039 12.5352 70.7109 12.5352C70.9219 12.5352 71.1016 12.6094 71.25 12.7578C71.3984 12.9062 71.4727 13.0859 71.4727 13.2969C71.4727 13.5039 71.3984 13.6836 71.25 13.8359C71.1016 13.9844 70.9219 14.0586 70.7109 14.0586ZM70.7109 9.52344C70.5039 9.52344 70.3242 9.44922 70.1719 9.30078C70.0234 9.14844 69.9492 8.96875 69.9492 8.76172C69.9492 8.55078 70.0234 8.37109 70.1719 8.22266C70.3242 8.07422 70.5039 8 70.7109 8C70.9219 8 71.1016 8.07422 71.25 8.22266C71.3984 8.37109 71.4727 8.55078 71.4727 8.76172C71.4727 8.96875 71.3984 9.14844 71.25 9.30078C71.1016 9.44922 70.9219 9.52344 70.7109 9.52344Z" fill="#565656"/>
</svg>
