<svg width="160" height="48" viewBox="0 0 160 48" fill="none" xmlns="http://www.w3.org/2000/svg">
<g clip-path="url(#clip0_9_4054)">
<path d="M24.5059 48C37.7607 48 48.5059 37.2548 48.5059 24C48.5059 10.7452 37.7607 0 24.5059 0C11.251 0 0.505859 10.7452 0.505859 24C0.505859 37.2548 11.251 48 24.5059 48Z" fill="url(#paint0_linear_9_4054)"/>
<path d="M35.7991 19.6075C35.3317 19.3037 35.0007 18.8153 34.9219 18.2634C34.3341 14.1448 30.6029 10.9193 26.1032 10.9193C23.0558 10.9193 20.2695 12.4263 18.6465 14.7988C18.3335 15.2563 17.8195 15.5373 17.2738 15.6346C15.7846 15.9 14.5675 16.9467 14.136 18.3096C13.9731 18.824 13.658 19.2957 13.2037 19.5867C11.671 20.5683 10.6777 22.2095 10.6777 24C10.6777 26.958 13.2725 29.4162 16.3949 29.4162H17.3685C18.1712 29.4162 18.8219 30.0669 18.8219 30.8696V32.9705C18.8219 33.5473 18.3544 34.0149 17.7776 34.0149C17.3428 34.0149 16.9698 33.7293 16.6979 33.39C16.2565 32.8392 15.5622 32.482 14.7768 32.482C13.4385 32.482 12.3497 33.5135 12.3497 34.7813C12.3497 36.0491 13.4385 37.0807 14.7768 37.0807C15.4574 37.0807 16.0695 36.8124 16.508 36.3824C16.9401 35.9588 17.4556 35.5478 18.0607 35.5478H18.9866C19.7893 35.5478 20.44 34.8971 20.44 34.0944V30.8696C20.44 30.0669 21.0907 29.4162 21.8934 29.4162H22.2227C23.0254 29.4162 23.6761 30.0669 23.6761 30.8696V31.5801C23.6761 32.2035 23.2425 32.727 22.785 33.1504C22.337 33.5652 22.058 34.1413 22.058 34.7813C22.058 36.0491 23.1468 37.0807 24.4851 37.0807C25.8234 37.0807 26.9122 36.0491 26.9122 34.7813C26.9122 34.1413 26.6332 33.5652 26.1852 33.1504C25.7277 32.727 25.2941 32.2035 25.2941 31.5801V30.8696C25.2941 30.0669 25.9448 29.4162 26.7475 29.4162H27.0768C27.8795 29.4162 28.5302 30.0669 28.5302 30.8696V34.0944C28.5302 34.8971 29.181 35.5478 29.9836 35.5478H30.9095C31.5147 35.5478 32.0301 35.9588 32.4622 36.3824C32.9007 36.8124 33.5128 37.0807 34.1934 37.0807C35.5317 37.0807 36.6205 36.0491 36.6205 34.7813C36.6205 33.5135 35.6756 32.482 34.1934 32.482C33.408 32.482 32.7137 32.8392 32.2724 33.39C32.0005 33.7293 31.6274 34.0149 31.1926 34.0149C30.6159 34.0149 30.1483 33.5473 30.1483 32.9705V30.8696C30.1483 30.0669 30.799 29.4162 31.6017 29.4162H32.5754C35.6977 29.4162 38.2925 26.958 38.2925 24C38.2925 22.2223 37.3132 20.5915 35.7991 19.6075ZM25.8356 26.2645C25.4678 26.478 24.9627 26.316 24.5382 26.2915C24.5028 26.2895 24.4672 26.2895 24.4318 26.2915C24.0073 26.316 23.5022 26.478 23.1344 26.2645C22.7411 26.0361 22.6176 25.5094 22.9919 25.251C23.8507 24.6583 25.1193 24.6583 25.9782 25.2509C26.3526 25.5093 26.229 26.0361 25.8356 26.2645ZM28.5954 24.6654C28.2275 24.8784 27.7626 24.7578 27.468 24.4513C26.709 23.6618 25.6394 23.2066 24.4851 23.2066C23.3308 23.2066 22.2612 23.6618 21.5022 24.4513C21.2076 24.7578 20.7427 24.8783 20.3748 24.6654C19.9807 24.4373 19.8541 23.9212 20.156 23.5804C21.2246 22.3741 22.7896 21.6737 24.4851 21.6737C26.1807 21.6737 27.7455 22.374 28.8143 23.5803C29.1163 23.9211 28.9896 24.4373 28.5954 24.6654ZM31.3561 23.0657C30.9882 23.2787 30.5214 23.1618 30.254 22.8313C28.8808 21.1342 26.7766 20.1408 24.4851 20.1408C22.1936 20.1408 20.0894 21.1342 18.7163 22.8313C18.4489 23.1618 17.982 23.2787 17.6141 23.0657C17.2201 22.8377 17.0944 22.3238 17.377 21.9669C19.0539 19.8495 21.6523 18.6079 24.4851 18.6079C27.3179 18.6079 29.9163 19.8495 31.5932 21.9669C31.8759 22.3238 31.7501 22.8377 31.3561 23.0657Z" fill="black"/>
<path d="M35.7991 19.6075C35.3317 19.3037 35.0007 18.8153 34.9219 18.2634C34.3341 14.1448 30.6029 10.9193 26.1032 10.9193C23.0558 10.9193 20.2695 12.4263 18.6465 14.7988C18.3335 15.2563 17.8195 15.5373 17.2738 15.6346C15.7846 15.9 14.5675 16.9467 14.136 18.3096C13.9731 18.824 13.658 19.2957 13.2037 19.5867C11.671 20.5683 10.6777 22.2095 10.6777 24C10.6777 26.958 13.2725 29.4162 16.3949 29.4162H17.3685C18.1712 29.4162 18.8219 30.0669 18.8219 30.8696V32.9705C18.8219 33.5473 18.3544 34.0149 17.7776 34.0149C17.3428 34.0149 16.9698 33.7293 16.6979 33.39C16.2565 32.8392 15.5622 32.482 14.7768 32.482C13.4385 32.482 12.3497 33.5135 12.3497 34.7813C12.3497 36.0491 13.4385 37.0807 14.7768 37.0807C15.4574 37.0807 16.0695 36.8124 16.508 36.3824C16.9401 35.9588 17.4556 35.5478 18.0607 35.5478H18.9866C19.7893 35.5478 20.44 34.8971 20.44 34.0944V30.8696C20.44 30.0669 21.0907 29.4162 21.8934 29.4162H22.2227C23.0254 29.4162 23.6761 30.0669 23.6761 30.8696V31.5801C23.6761 32.2035 23.2425 32.727 22.785 33.1504C22.337 33.5652 22.058 34.1413 22.058 34.7813C22.058 36.0491 23.1468 37.0807 24.4851 37.0807C25.8234 37.0807 26.9122 36.0491 26.9122 34.7813C26.9122 34.1413 26.6332 33.5652 26.1852 33.1504C25.7277 32.727 25.2941 32.2035 25.2941 31.5801V30.8696C25.2941 30.0669 25.9448 29.4162 26.7475 29.4162H27.0768C27.8795 29.4162 28.5302 30.0669 28.5302 30.8696V34.0944C28.5302 34.8971 29.181 35.5478 29.9836 35.5478H30.9095C31.5147 35.5478 32.0301 35.9588 32.4622 36.3824C32.9007 36.8124 33.5128 37.0807 34.1934 37.0807C35.5317 37.0807 36.6205 36.0491 36.6205 34.7813C36.6205 33.5135 35.6756 32.482 34.1934 32.482C33.408 32.482 32.7137 32.8392 32.2724 33.39C32.0005 33.7293 31.6274 34.0149 31.1926 34.0149C30.6159 34.0149 30.1483 33.5473 30.1483 32.9705V30.8696C30.1483 30.0669 30.799 29.4162 31.6017 29.4162H32.5754C35.6977 29.4162 38.2925 26.958 38.2925 24C38.2925 22.2223 37.3132 20.5915 35.7991 19.6075ZM25.8356 26.2645C25.4678 26.478 24.9627 26.316 24.5382 26.2915C24.5028 26.2895 24.4672 26.2895 24.4318 26.2915C24.0073 26.316 23.5022 26.478 23.1344 26.2645C22.7411 26.0361 22.6176 25.5094 22.9919 25.251C23.8507 24.6583 25.1193 24.6583 25.9782 25.2509C26.3526 25.5093 26.229 26.0361 25.8356 26.2645ZM28.5954 24.6654C28.2275 24.8784 27.7626 24.7578 27.468 24.4513C26.709 23.6618 25.6394 23.2066 24.4851 23.2066C23.3308 23.2066 22.2612 23.6618 21.5022 24.4513C21.2076 24.7578 20.7427 24.8783 20.3748 24.6654C19.9807 24.4373 19.8541 23.9212 20.156 23.5804C21.2246 22.3741 22.7896 21.6737 24.4851 21.6737C26.1807 21.6737 27.7455 22.374 28.8143 23.5803C29.1163 23.9211 28.9896 24.4373 28.5954 24.6654ZM31.3561 23.0657C30.9882 23.2787 30.5214 23.1618 30.254 22.8313C28.8808 21.1342 26.7766 20.1408 24.4851 20.1408C22.1936 20.1408 20.0894 21.1342 18.7163 22.8313C18.4489 23.1618 17.982 23.2787 17.6141 23.0657C17.2201 22.8377 17.0944 22.3238 17.377 21.9669C19.0539 19.8495 21.6523 18.6079 24.4851 18.6079C27.3179 18.6079 29.9163 19.8495 31.5932 21.9669C31.8759 22.3238 31.7501 22.8377 31.3561 23.0657Z" fill="url(#paint1_linear_9_4054)"/>
</g>
<path d="M61.5644 25.9815H59.0022C58.4811 25.9815 58.0586 25.5591 58.0586 25.0379V16.4077C58.0586 15.8865 58.4811 15.4641 59.0022 15.4641H60.6208C61.142 15.4641 61.5644 15.8865 61.5644 16.4077V25.9815ZM65.0702 25.9815V16.4077C65.0702 15.8865 65.4927 15.4641 66.0138 15.4641H67.6325C68.1536 15.4641 68.576 15.8865 68.576 16.4077V25.0379C68.576 25.5591 68.1536 25.9815 67.6325 25.9815H65.0702ZM65.0702 32.0496C65.0702 32.5707 64.6478 32.9932 64.1266 32.9932H62.508C61.9869 32.9932 61.5644 32.5707 61.5644 32.0496V25.9815H65.0702V32.0496Z" fill="url(#paint2_linear_9_4054)"/>
<path d="M75.5877 32.0496C75.5877 32.5707 75.1652 32.9932 74.6441 32.9932H73.0255C72.5043 32.9932 72.0819 32.5707 72.0819 32.0496V19.9135C72.0819 19.3924 72.5043 18.9699 73.0255 18.9699H85.1616C85.6827 18.9699 86.1051 19.3924 86.1051 19.9135V22.4757H83.5429C83.0218 22.4757 82.5993 22.8982 82.5993 23.4193V32.0496C82.5993 32.5707 82.1769 32.9932 81.6557 32.9932H80.0371C79.516 32.9932 79.0935 32.5707 79.0935 32.0496V23.4193C79.0935 22.8982 78.671 22.4757 78.1499 22.4757H76.5313C76.0102 22.4757 75.5877 22.8982 75.5877 23.4193V32.0496ZM89.611 32.0496C89.611 32.5707 89.1885 32.9932 88.6674 32.9932H87.0487C86.5276 32.9932 86.1051 32.5707 86.1051 32.0496V22.4757H88.6674C89.1885 22.4757 89.611 22.8982 89.611 23.4193V32.0496Z" fill="url(#paint3_linear_9_4054)"/>
<path d="M96.6226 32.0496C96.6226 32.5707 96.2001 32.9932 95.679 32.9932H94.0604C93.5392 32.9932 93.1168 32.5707 93.1168 32.0496V16.4077C93.1168 15.8865 93.5392 15.4641 94.0604 15.4641H95.679C96.2001 15.4641 96.6226 15.8865 96.6226 16.4077V32.0496Z" fill="url(#paint4_linear_9_4054)"/>
<path d="M101.072 15.4641C100.551 15.4641 100.128 15.0416 100.128 14.5205V12.9018C100.128 12.3807 100.551 11.9583 101.072 11.9583H102.691C103.212 11.9583 103.634 12.3807 103.634 12.9018V14.5205C103.634 15.0416 103.212 15.4641 102.691 15.4641H101.072ZM103.634 32.0496C103.634 32.5707 103.212 32.9932 102.691 32.9932H101.072C100.551 32.9932 100.128 32.5707 100.128 32.0496V19.9135C100.128 19.3924 100.551 18.9699 101.072 18.9699H102.691C103.212 18.9699 103.634 19.3924 103.634 19.9135V32.0496Z" fill="url(#paint5_linear_9_4054)"/>
<path d="M110.646 32.0496C110.646 32.5707 110.223 32.9932 109.702 32.9932H108.084C107.563 32.9932 107.14 32.5707 107.14 32.0496V19.9135C107.14 19.3924 107.563 18.9699 108.084 18.9699H113.208C113.729 18.9699 114.152 19.3924 114.152 19.9135V22.4757H111.589C111.068 22.4757 110.646 22.8982 110.646 23.4193V32.0496ZM117.658 32.0496C117.658 32.5707 117.235 32.9932 116.714 32.9932H115.095C114.574 32.9932 114.152 32.5707 114.152 32.0496V22.4757H116.714C117.235 22.4757 117.658 22.8982 117.658 23.4193V32.0496Z" fill="url(#paint6_linear_9_4054)"/>
<path d="M124.669 29.4873H122.107C121.586 29.4873 121.163 29.0649 121.163 28.5437V23.4193C121.163 22.8982 121.586 22.4757 122.107 22.4757H123.726C124.247 22.4757 124.669 22.0532 124.669 21.5321V19.9135C124.669 19.3923 125.092 18.9699 125.613 18.9699H127.231C127.753 18.9699 128.175 19.3924 128.175 19.9135V21.5321C128.175 22.0532 128.597 22.4757 129.119 22.4757H130.737C131.258 22.4757 131.681 22.8982 131.681 23.4193V25.0379C131.681 25.5591 131.258 25.9815 130.737 25.9815H125.613C125.092 25.9815 124.669 26.404 124.669 26.9251V29.4873ZM125.613 32.9932C125.092 32.9932 124.669 32.5707 124.669 32.0496V29.4873H130.737C131.258 29.4873 131.681 29.9098 131.681 30.4309V32.0496C131.681 32.5707 131.258 32.9932 130.737 32.9932H125.613Z" fill="url(#paint7_linear_9_4054)"/>
<path d="M136.13 32.9932C135.609 32.9932 135.187 32.5707 135.187 32.0496V30.4309C135.187 29.9098 135.609 29.4873 136.13 29.4873H137.749C138.27 29.4873 138.692 29.9098 138.692 30.4309V32.0496C138.692 32.5707 138.27 32.9932 137.749 32.9932H136.13Z" fill="url(#paint8_linear_9_4054)"/>
<path d="M149.21 29.4873V32.0496C149.21 32.5707 148.787 32.9932 148.266 32.9932H146.648C146.127 32.9932 145.704 33.4156 145.704 33.9368V35.5554C145.704 36.0765 145.282 36.499 144.76 36.499H143.142C142.621 36.499 142.198 36.0765 142.198 35.5554V19.9135C142.198 19.3924 142.621 18.9699 143.142 18.9699H148.266C148.787 18.9699 149.21 19.3924 149.21 19.9135V22.4757H146.648C146.127 22.4757 145.704 22.8982 145.704 23.4193V28.5438C145.704 29.0649 146.127 29.4873 146.648 29.4873H149.21ZM152.716 28.5438C152.716 29.0649 152.293 29.4873 151.772 29.4873H149.21V22.4757H151.772C152.293 22.4757 152.716 22.8982 152.716 23.4193V28.5438Z" fill="url(#paint9_linear_9_4054)"/>
<path d="M159.727 32.0496C159.727 32.5707 159.305 32.9932 158.784 32.9932H157.165C156.644 32.9932 156.222 32.5707 156.222 32.0496V16.4077C156.222 15.8865 156.644 15.4641 157.165 15.4641H158.784C159.305 15.4641 159.727 15.8865 159.727 16.4077V32.0496Z" fill="url(#paint10_linear_9_4054)"/>
<defs>
<linearGradient id="paint0_linear_9_4054" x1="24.5059" y1="48" x2="24.5059" y2="0" gradientUnits="userSpaceOnUse">
<stop stop-color="#ADDCFF"/>
<stop offset="0.5028" stop-color="#EAF6FF"/>
<stop offset="1" stop-color="#EAF6FF"/>
</linearGradient>
<linearGradient id="paint1_linear_9_4054" x1="24.4851" y1="37.0807" x2="24.4851" y2="10.9193" gradientUnits="userSpaceOnUse">
<stop stop-color="#00C0FF"/>
<stop offset="1" stop-color="#3235E7"/>
</linearGradient>
<linearGradient id="paint2_linear_9_4054" x1="110.9" y1="39.5983" x2="110.9" y2="8.45968" gradientUnits="userSpaceOnUse">
<stop stop-color="#00C0FF"/>
<stop offset="1" stop-color="#3235E7"/>
</linearGradient>
<linearGradient id="paint3_linear_9_4054" x1="110.9" y1="39.5983" x2="110.9" y2="8.45968" gradientUnits="userSpaceOnUse">
<stop stop-color="#00C0FF"/>
<stop offset="1" stop-color="#3235E7"/>
</linearGradient>
<linearGradient id="paint4_linear_9_4054" x1="110.9" y1="39.5983" x2="110.9" y2="8.45968" gradientUnits="userSpaceOnUse">
<stop stop-color="#00C0FF"/>
<stop offset="1" stop-color="#3235E7"/>
</linearGradient>
<linearGradient id="paint5_linear_9_4054" x1="110.9" y1="39.5983" x2="110.9" y2="8.45968" gradientUnits="userSpaceOnUse">
<stop stop-color="#00C0FF"/>
<stop offset="1" stop-color="#3235E7"/>
</linearGradient>
<linearGradient id="paint6_linear_9_4054" x1="110.9" y1="39.5983" x2="110.9" y2="8.45968" gradientUnits="userSpaceOnUse">
<stop stop-color="#00C0FF"/>
<stop offset="1" stop-color="#3235E7"/>
</linearGradient>
<linearGradient id="paint7_linear_9_4054" x1="110.9" y1="39.5983" x2="110.9" y2="8.45968" gradientUnits="userSpaceOnUse">
<stop stop-color="#00C0FF"/>
<stop offset="1" stop-color="#3235E7"/>
</linearGradient>
<linearGradient id="paint8_linear_9_4054" x1="110.9" y1="39.5983" x2="110.9" y2="8.45968" gradientUnits="userSpaceOnUse">
<stop stop-color="#00C0FF"/>
<stop offset="1" stop-color="#3235E7"/>
</linearGradient>
<linearGradient id="paint9_linear_9_4054" x1="110.9" y1="39.5983" x2="110.9" y2="8.45968" gradientUnits="userSpaceOnUse">
<stop stop-color="#00C0FF"/>
<stop offset="1" stop-color="#3235E7"/>
</linearGradient>
<linearGradient id="paint10_linear_9_4054" x1="110.9" y1="39.5983" x2="110.9" y2="8.45968" gradientUnits="userSpaceOnUse">
<stop stop-color="#00C0FF"/>
<stop offset="1" stop-color="#3235E7"/>
</linearGradient>
<clipPath id="clip0_9_4054">
<rect width="48" height="48" fill="white" transform="translate(0.505859)"/>
</clipPath>
</defs>
</svg>
