<svg width="32" height="32" viewBox="0 0 32 32" fill="none" xmlns="http://www.w3.org/2000/svg">
<path d="M16 0C7.16089 0 0 7.16089 0 16C0 24.8391 7.16089 31.9999 16 31.9999C24.8391 31.9999 31.9999 24.8391 31.9999 16C31.9999 7.16089 24.8391 0 16 0ZM26.0409 14.1867L21.056 18.8871L22.5778 24.3413C22.8836 25.4435 22.3431 25.8631 21.3546 25.2729L16 22.0444L10.6382 25.2657C9.65686 25.8559 9.08092 25.4364 9.35821 24.32L10.8302 18.3893L6.00175 14.1298C5.14132 13.3689 5.37596 12.7573 6.52087 12.7573H12.3875L15.1751 6.27202C15.6302 5.21956 16.3555 5.21956 16.7964 6.2791L19.5199 12.7573H25.4648C26.6168 12.7645 26.8729 13.4044 26.0409 14.1867Z" fill="#008000"/>
</svg>
