<svg width="105" height="16" viewBox="0 0 105 16" fill="none" xmlns="http://www.w3.org/2000/svg">
<path d="M15.5312 15.0625H15.0312V6.71875C15.0312 6.45988 14.8214 6.25 14.5625 6.25H12.6875C12.4286 6.25 12.2188 6.45988 12.2188 6.71875V15.0625H11.2812V9.21875C11.2812 8.95988 11.0714 8.75 10.8125 8.75H8.9375C8.67863 8.75 8.46875 8.95988 8.46875 9.21875V15.0625H7.53125V11.0938C7.53125 10.8349 7.32137 10.625 7.0625 10.625H5.1875C4.92863 10.625 4.71875 10.8349 4.71875 11.0938V15.0625H3.78125V12.3438C3.78125 12.0849 3.57137 11.875 3.3125 11.875H1.4375C1.17862 11.875 0.96875 12.0849 0.96875 12.3438V15.0625H0.46875C0.209875 15.0625 0 15.2724 0 15.5312C0 15.7901 0.209875 16 0.46875 16H15.5312C15.7901 16 16 15.7901 16 15.5312C16 15.2724 15.7901 15.0625 15.5312 15.0625Z" fill="#565656"/>
<path d="M9.25 5.3125H9.68084L9.16444 5.82891C7.48225 7.51106 5.24569 8.4375 2.86675 8.4375H1.125C0.866125 8.4375 0.65625 8.64738 0.65625 8.90625C0.65625 9.16512 0.866125 9.375 1.125 9.375H2.86675C4.166 9.375 5.43344 9.12291 6.63378 8.62566C7.83416 8.12847 8.90862 7.41053 9.82731 6.49181L10.3438 5.97541V6.40625C10.3438 6.66512 10.5536 6.875 10.8125 6.875C11.0714 6.875 11.2812 6.66512 11.2812 6.40625V4.84375C11.2812 4.58488 11.0714 4.375 10.8125 4.375H9.25C8.99113 4.375 8.78125 4.58488 8.78125 4.84375C8.78125 5.10262 8.99113 5.3125 9.25 5.3125Z" fill="#565656"/>
<path d="M3.59375 7.1875C5.57534 7.1875 7.1875 5.57534 7.1875 3.59375C7.1875 1.61216 5.57534 0 3.59375 0C1.61216 0 0 1.61216 0 3.59375C0 5.57534 1.61216 7.1875 3.59375 7.1875ZM2.34375 3.125H3.125V2.34375C3.125 2.08488 3.33488 1.875 3.59375 1.875C3.85262 1.875 4.0625 2.08488 4.0625 2.34375V3.59375C4.0625 3.85262 3.85262 4.0625 3.59375 4.0625H2.34375C2.08488 4.0625 1.875 3.85262 1.875 3.59375C1.875 3.33488 2.08488 3.125 2.34375 3.125Z" fill="#565656"/>
<path d="M26.8301 14L24.5273 5.54492H25.6289L27.3105 12.418H27.3809L29.2734 5.54492H30.3398L32.2324 12.418H32.3027L33.9844 5.54492H35.0859L32.7832 14H31.7871L29.8418 7.32617H29.7715L27.8262 14H26.8301ZM39.0176 14V10.3613L36.0176 5.54492H37.2188L39.498 9.30078H39.5918L41.8711 5.54492H43.0723L40.0723 10.3613V14H39.0176ZM44.5547 14V5.54492H47.4551C48.291 5.54492 49.0059 5.71289 49.5996 6.04883C50.1973 6.38086 50.6543 6.86133 50.9707 7.49023C51.2871 8.11914 51.4453 8.87695 51.4453 9.76367V9.77539C51.4453 10.6621 51.2871 11.4219 50.9707 12.0547C50.6543 12.6836 50.1992 13.166 49.6055 13.502C49.0117 13.834 48.2949 14 47.4551 14H44.5547ZM45.6094 13.0508H47.3848C48.0137 13.0508 48.5508 12.9219 48.9961 12.6641C49.4414 12.4062 49.7812 12.0332 50.0156 11.5449C50.25 11.0566 50.3672 10.4707 50.3672 9.78711V9.77539C50.3672 9.08789 50.248 8.5 50.0098 8.01172C49.7754 7.51953 49.4355 7.14453 48.9902 6.88672C48.5449 6.625 48.0098 6.49414 47.3848 6.49414H45.6094V13.0508ZM52.1895 14L55.3066 5.54492H56.1152V6.91016H55.7812L53.2969 14H52.1895ZM53.6016 11.5801L53.9297 10.6836H57.75L58.0781 11.5801H53.6016ZM58.3594 14L55.875 6.91016V5.54492H56.3496L59.4668 14H58.3594ZM62.7598 14.1992C62.3926 14.1992 62.0664 14.1465 61.7812 14.041C61.4961 13.9355 61.2539 13.7871 61.0547 13.5957C60.8555 13.4043 60.6992 13.1797 60.5859 12.9219C60.4727 12.6641 60.4043 12.3828 60.3809 12.0781L60.375 11.9961H61.4297L61.4355 12.0547C61.459 12.2656 61.5215 12.4609 61.623 12.6406C61.7246 12.8164 61.8691 12.959 62.0566 13.0684C62.2441 13.1738 62.4766 13.2266 62.7539 13.2266C63.2227 13.2266 63.5801 13.0918 63.8262 12.8223C64.0723 12.5488 64.1953 12.1543 64.1953 11.6387V5.54492H65.25V11.6504C65.25 12.1816 65.1504 12.6387 64.9512 13.0215C64.7559 13.4004 64.4727 13.6914 64.1016 13.8945C63.7305 14.0977 63.2832 14.1992 62.7598 14.1992ZM67.4062 14V5.54492H68.4316L73.2773 12.4941L72.5742 12.125H73.1133V5.54492H74.1562V14H73.1309L68.2852 7.07422L68.9883 7.44336H68.4492V14H67.4062ZM79.8633 14.1992C79.0547 14.1992 78.3613 14.0195 77.7832 13.6602C77.2051 13.2969 76.7598 12.7832 76.4473 12.1191C76.1387 11.4551 75.9844 10.6738 75.9844 9.77539V9.76367C75.9844 8.85742 76.1406 8.07422 76.4531 7.41406C76.7695 6.75391 77.2168 6.24414 77.7949 5.88477C78.377 5.52539 79.0664 5.3457 79.8633 5.3457C80.6641 5.3457 81.3535 5.52539 81.9316 5.88477C82.5137 6.24414 82.9609 6.75586 83.2734 7.41992C83.5859 8.08008 83.7422 8.86133 83.7422 9.76367V9.77539C83.7422 10.6738 83.5859 11.4551 83.2734 12.1191C82.9648 12.7793 82.5195 13.291 81.9375 13.6543C81.3594 14.0176 80.668 14.1992 79.8633 14.1992ZM79.8633 13.2266C80.4414 13.2266 80.9395 13.084 81.3574 12.7988C81.7754 12.5137 82.0977 12.1133 82.3242 11.5977C82.5508 11.0781 82.6641 10.4707 82.6641 9.77539V9.76367C82.6641 9.06055 82.5508 8.45117 82.3242 7.93555C82.0977 7.41992 81.7754 7.02148 81.3574 6.74023C80.9395 6.45898 80.4414 6.31836 79.8633 6.31836C79.2891 6.31836 78.793 6.45898 78.375 6.74023C77.957 7.02148 77.6328 7.41992 77.4023 7.93555C77.1758 8.45117 77.0625 9.06055 77.0625 9.76367V9.77539C77.0625 10.4707 77.1738 11.0781 77.3965 11.5977C77.6191 12.1133 77.9395 12.5137 78.3574 12.7988C78.7754 13.084 79.2773 13.2266 79.8633 13.2266ZM88.3418 14.1992C87.7246 14.1992 87.1855 14.0996 86.7246 13.9004C86.2676 13.6973 85.9043 13.4199 85.6348 13.0684C85.3691 12.7129 85.2148 12.3066 85.1719 11.8496L85.166 11.7852H86.2207L86.2266 11.8496C86.2539 12.1309 86.3613 12.375 86.5488 12.582C86.7402 12.7852 86.9941 12.9434 87.3105 13.0566C87.6309 13.1699 87.9941 13.2266 88.4004 13.2266C88.7832 13.2266 89.123 13.166 89.4199 13.0449C89.7207 12.9199 89.957 12.748 90.1289 12.5293C90.3008 12.3105 90.3867 12.0586 90.3867 11.7734V11.7676C90.3867 11.416 90.2578 11.1211 90 10.8828C89.7422 10.6406 89.3223 10.4551 88.7402 10.3262L87.8027 10.1211C86.9551 9.93359 86.3379 9.64453 85.9512 9.25391C85.5684 8.85938 85.377 8.35547 85.377 7.74219V7.73633C85.3809 7.26758 85.5078 6.85352 85.7578 6.49414C86.0117 6.13477 86.3613 5.85352 86.8066 5.65039C87.2559 5.44727 87.7715 5.3457 88.3535 5.3457C88.916 5.3457 89.4141 5.44727 89.8477 5.65039C90.2812 5.84961 90.625 6.11914 90.8789 6.45898C91.1367 6.79883 91.2793 7.17969 91.3066 7.60156L91.3125 7.68359H90.2578L90.2461 7.60742C90.207 7.35742 90.1055 7.13672 89.9414 6.94531C89.7773 6.75 89.5586 6.5957 89.2852 6.48242C89.0117 6.36914 88.6914 6.31445 88.3242 6.31836C87.9727 6.31836 87.6562 6.37305 87.375 6.48242C87.0938 6.5918 86.8691 6.75 86.7012 6.95703C86.5371 7.16016 86.4551 7.41016 86.4551 7.70703V7.71289C86.4551 8.04883 86.5801 8.33203 86.8301 8.5625C87.0801 8.79297 87.4922 8.9707 88.0664 9.0957L89.0039 9.30664C89.5938 9.43555 90.0684 9.60352 90.4277 9.81055C90.7871 10.0176 91.0488 10.2715 91.2129 10.5723C91.3809 10.8691 91.4648 11.2207 91.4648 11.627V11.6328C91.4648 12.1602 91.3359 12.6152 91.0781 12.998C90.8203 13.3809 90.457 13.6777 89.9883 13.8887C89.5195 14.0957 88.9707 14.1992 88.3418 14.1992ZM88.7812 4.70117H87.9141L88.8984 2.80273H90.0762L88.7812 4.70117ZM96.627 14.1992C95.8613 14.1992 95.1992 14.0195 94.6406 13.6602C94.082 13.3008 93.6504 12.791 93.3457 12.1309C93.0449 11.4707 92.8945 10.6875 92.8945 9.78125V9.76953C92.8945 8.85938 93.0449 8.07422 93.3457 7.41406C93.6504 6.75391 94.0801 6.24414 94.6348 5.88477C95.1934 5.52539 95.8555 5.3457 96.6211 5.3457C97.2148 5.3457 97.7539 5.46289 98.2383 5.69727C98.7266 5.92773 99.1289 6.25 99.4453 6.66406C99.7617 7.07422 99.9609 7.54883 100.043 8.08789L100.037 8.09961H98.9766L98.9707 8.08789C98.877 7.72461 98.7188 7.41211 98.4961 7.15039C98.2734 6.88477 98.002 6.67969 97.6816 6.53516C97.3652 6.39062 97.0117 6.31836 96.6211 6.31836C96.082 6.31836 95.6133 6.45898 95.2148 6.74023C94.8203 7.02148 94.5156 7.41992 94.3008 7.93555C94.0859 8.45117 93.9785 9.0625 93.9785 9.76953V9.78125C93.9785 10.4844 94.0859 11.0938 94.3008 11.6094C94.5156 12.125 94.8203 12.5234 95.2148 12.8047C95.6133 13.0859 96.084 13.2266 96.627 13.2266C97.0215 13.2266 97.3789 13.1641 97.6992 13.0391C98.0195 12.9102 98.2891 12.7285 98.5078 12.4941C98.7266 12.2559 98.8789 11.9746 98.9648 11.6504L98.9766 11.6387H100.043V11.6504C99.9492 12.166 99.7461 12.6152 99.4336 12.998C99.1211 13.377 98.7246 13.6719 98.2441 13.8828C97.7676 14.0938 97.2285 14.1992 96.627 14.1992ZM97.002 4.70117H96.1348L97.1191 2.80273H98.2969L97.002 4.70117ZM102.516 14.0586C102.309 14.0586 102.129 13.9844 101.977 13.8359C101.828 13.6836 101.754 13.5039 101.754 13.2969C101.754 13.0859 101.828 12.9062 101.977 12.7578C102.129 12.6094 102.309 12.5352 102.516 12.5352C102.727 12.5352 102.906 12.6094 103.055 12.7578C103.203 12.9062 103.277 13.0859 103.277 13.2969C103.277 13.5039 103.203 13.6836 103.055 13.8359C102.906 13.9844 102.727 14.0586 102.516 14.0586ZM102.516 9.52344C102.309 9.52344 102.129 9.44922 101.977 9.30078C101.828 9.14844 101.754 8.96875 101.754 8.76172C101.754 8.55078 101.828 8.37109 101.977 8.22266C102.129 8.07422 102.309 8 102.516 8C102.727 8 102.906 8.07422 103.055 8.22266C103.203 8.37109 103.277 8.55078 103.277 8.76172C103.277 8.96875 103.203 9.14844 103.055 9.30078C102.906 9.44922 102.727 9.52344 102.516 9.52344Z" fill="#565656"/>
</svg>
