<svg width="137" height="16" viewBox="0 0 137 16" fill="none" xmlns="http://www.w3.org/2000/svg">
<path d="M14.9486 2.23927C14.9199 2.03298 14.7715 1.86329 14.5708 1.80751L8.14016 0.0191373C8.04848 -0.00637908 7.95165 -0.00637908 7.8599 0.0191373L1.42923 1.80751C1.22858 1.86329 1.08015 2.03291 1.05143 2.23927C1.01413 2.50747 0.163238 8.84444 2.34572 11.9969C4.52563 15.1456 7.74145 15.9525 7.87726 15.9853C7.91763 15.9951 7.95876 15.9999 8.00003 15.9999C8.0413 15.9999 8.08244 15.995 8.1228 15.9853C8.25868 15.9525 11.4745 15.1456 13.6543 11.9969C15.8368 8.84451 14.9859 2.50754 14.9486 2.23927ZM12.147 5.93886L7.76062 10.3252C7.65856 10.4273 7.5247 10.4784 7.39092 10.4784C7.25713 10.4784 7.12327 10.4274 7.02121 10.3252L4.30916 7.61318C4.21106 7.51515 4.15599 7.38213 4.15599 7.24347C4.15599 7.1048 4.21113 6.97178 4.30916 6.87376L4.84765 6.33527C5.05185 6.13114 5.38293 6.13107 5.58706 6.33527L7.39092 8.13912L10.8691 4.66088C10.9671 4.56279 11.1001 4.50771 11.2388 4.50771C11.3775 4.50771 11.5105 4.56279 11.6085 4.66088L12.147 5.19937C12.3512 5.40357 12.3512 5.73466 12.147 5.93886Z" fill="#565656"/>
<path d="M25.6055 14V13.0684H28.2188C28.8555 13.0684 29.3379 12.9414 29.666 12.6875C29.9941 12.4336 30.1582 12.0645 30.1582 11.5801V11.5684C30.1582 11.2441 30.082 10.9727 29.9297 10.7539C29.7773 10.5352 29.5488 10.3711 29.2441 10.2617C28.9434 10.1523 28.5684 10.0977 28.1191 10.0977H25.6055V9.18945H27.8203C28.4609 9.18945 28.9414 9.07617 29.2617 8.84961C29.5859 8.62305 29.748 8.28711 29.748 7.8418V7.83008C29.748 7.40039 29.6016 7.06836 29.3086 6.83398C29.0195 6.5957 28.6133 6.47656 28.0898 6.47656H25.6055V5.54492H28.3125C28.832 5.54492 29.2773 5.63086 29.6484 5.80273C30.0234 5.97461 30.3105 6.21875 30.5098 6.53516C30.7129 6.84766 30.8145 7.21875 30.8145 7.64844V7.66016C30.8145 7.95312 30.748 8.22852 30.6152 8.48633C30.4863 8.74414 30.3125 8.96094 30.0938 9.13672C29.875 9.3125 29.6289 9.42578 29.3555 9.47656V9.57031C29.7422 9.61719 30.0762 9.73242 30.3574 9.91602C30.6387 10.0996 30.8555 10.3379 31.0078 10.6309C31.1641 10.9199 31.2422 11.25 31.2422 11.6211V11.6328C31.2422 12.125 31.127 12.5488 30.8965 12.9043C30.6699 13.2559 30.3438 13.5273 29.918 13.7188C29.4922 13.9062 28.9785 14 28.377 14H25.6055ZM25.0781 14V5.54492H26.1328V14H25.0781ZM32.9648 14V5.54492H38.2031V6.49414H34.0195V9.20703H37.9863V10.1445H34.0195V13.0508H38.2031V14H32.9648ZM39.8789 14V13.25L44.666 6.58789V6.49414H40.043V5.54492H46.0312V6.29492L41.2676 12.957V13.0508H46.1309V14H39.8789ZM48.5859 10.9824V10.0449H50.9766C51.582 10.0449 52.0508 9.88867 52.3828 9.57617C52.7148 9.25977 52.8809 8.82422 52.8809 8.26953V8.25781C52.8809 7.69922 52.7148 7.26367 52.3828 6.95117C52.0508 6.63867 51.582 6.48242 50.9766 6.48242H48.5859V5.54492H51.2461C51.7773 5.54492 52.2461 5.6582 52.6523 5.88477C53.0586 6.11133 53.377 6.42773 53.6074 6.83398C53.8418 7.24023 53.959 7.71094 53.959 8.24609V8.25781C53.959 8.79297 53.8418 9.26562 53.6074 9.67578C53.377 10.0859 53.0586 10.4062 52.6523 10.6367C52.2461 10.8672 51.7773 10.9824 51.2461 10.9824H48.5859ZM48.0586 14V5.54492H49.1133V14H48.0586ZM55.6875 14V5.54492H56.7422V14H55.6875ZM58.8984 14V5.54492H64.1367V6.49414H59.9531V9.20703H63.9199V10.1445H59.9531V13.0508H64.1367V14H58.8984ZM69.4512 14.1992C68.6855 14.1992 68.0234 14.0195 67.4648 13.6602C66.9062 13.3008 66.4746 12.791 66.1699 12.1309C65.8691 11.4707 65.7188 10.6875 65.7188 9.78125V9.76953C65.7188 8.85938 65.8691 8.07422 66.1699 7.41406C66.4746 6.75391 66.9043 6.24414 67.459 5.88477C68.0176 5.52539 68.6797 5.3457 69.4453 5.3457C70.0391 5.3457 70.5781 5.46289 71.0625 5.69727C71.5508 5.92773 71.9531 6.25 72.2695 6.66406C72.5859 7.07422 72.7852 7.54883 72.8672 8.08789L72.8613 8.09961H71.8008L71.7949 8.08789C71.7012 7.72461 71.543 7.41211 71.3203 7.15039C71.0977 6.88477 70.8262 6.67969 70.5059 6.53516C70.1895 6.39062 69.8359 6.31836 69.4453 6.31836C68.9062 6.31836 68.4375 6.45898 68.0391 6.74023C67.6445 7.02148 67.3398 7.41992 67.125 7.93555C66.9102 8.45117 66.8027 9.0625 66.8027 9.76953V9.78125C66.8027 10.4844 66.9102 11.0938 67.125 11.6094C67.3398 12.125 67.6445 12.5234 68.0391 12.8047C68.4375 13.0859 68.9082 13.2266 69.4512 13.2266C69.8457 13.2266 70.2031 13.1641 70.5234 13.0391C70.8438 12.9102 71.1133 12.7285 71.332 12.4941C71.5508 12.2559 71.7031 11.9746 71.7891 11.6504L71.8008 11.6387H72.8672V11.6504C72.7734 12.166 72.5703 12.6152 72.2578 12.998C71.9453 13.377 71.5488 13.6719 71.0684 13.8828C70.5918 14.0938 70.0527 14.1992 69.4512 14.1992ZM74.4023 14V13.25L79.1895 6.58789V6.49414H74.5664V5.54492H80.5547V6.29492L75.791 12.957V13.0508H80.6543V14H74.4023ZM82.582 14V5.54492H87.8203V6.49414H83.6367V9.20703H87.6035V10.1445H83.6367V13.0508H87.8203V14H82.582ZM89.7305 14V5.54492H90.7559L95.6016 12.4941L94.8984 12.125H95.4375V5.54492H96.4805V14H95.4551L90.6094 7.07422L91.3125 7.44336H90.7734V14H89.7305ZM93.4922 4.70117H92.625L93.6094 2.80273H94.7871L93.4922 4.70117ZM101.408 14.1992C100.791 14.1992 100.252 14.0996 99.791 13.9004C99.334 13.6973 98.9707 13.4199 98.7012 13.0684C98.4355 12.7129 98.2812 12.3066 98.2383 11.8496L98.2324 11.7852H99.2871L99.293 11.8496C99.3203 12.1309 99.4277 12.375 99.6152 12.582C99.8066 12.7852 100.061 12.9434 100.377 13.0566C100.697 13.1699 101.061 13.2266 101.467 13.2266C101.85 13.2266 102.189 13.166 102.486 13.0449C102.787 12.9199 103.023 12.748 103.195 12.5293C103.367 12.3105 103.453 12.0586 103.453 11.7734V11.7676C103.453 11.416 103.324 11.1211 103.066 10.8828C102.809 10.6406 102.389 10.4551 101.807 10.3262L100.869 10.1211C100.021 9.93359 99.4043 9.64453 99.0176 9.25391C98.6348 8.85938 98.4434 8.35547 98.4434 7.74219V7.73633C98.4473 7.26758 98.5742 6.85352 98.8242 6.49414C99.0781 6.13477 99.4277 5.85352 99.873 5.65039C100.322 5.44727 100.838 5.3457 101.42 5.3457C101.982 5.3457 102.48 5.44727 102.914 5.65039C103.348 5.84961 103.691 6.11914 103.945 6.45898C104.203 6.79883 104.346 7.17969 104.373 7.60156L104.379 7.68359H103.324L103.312 7.60742C103.273 7.35742 103.172 7.13672 103.008 6.94531C102.844 6.75 102.625 6.5957 102.352 6.48242C102.078 6.36914 101.758 6.31445 101.391 6.31836C101.039 6.31836 100.723 6.37305 100.441 6.48242C100.16 6.5918 99.9355 6.75 99.7676 6.95703C99.6035 7.16016 99.5215 7.41016 99.5215 7.70703V7.71289C99.5215 8.04883 99.6465 8.33203 99.8965 8.5625C100.146 8.79297 100.559 8.9707 101.133 9.0957L102.07 9.30664C102.66 9.43555 103.135 9.60352 103.494 9.81055C103.854 10.0176 104.115 10.2715 104.279 10.5723C104.447 10.8691 104.531 11.2207 104.531 11.627V11.6328C104.531 12.1602 104.402 12.6152 104.145 12.998C103.887 13.3809 103.523 13.6777 103.055 13.8887C102.586 14.0957 102.037 14.1992 101.408 14.1992ZM108.486 14V6.49414H105.762V5.54492H112.266V6.49414H109.541V14H108.486ZM115.646 14L113.344 5.54492H114.445L116.127 12.418H116.197L118.09 5.54492H119.156L121.049 12.418H121.119L122.801 5.54492H123.902L121.6 14H120.604L118.658 7.32617H118.588L116.643 14H115.646ZM128.707 14.1992C127.898 14.1992 127.205 14.0195 126.627 13.6602C126.049 13.2969 125.604 12.7832 125.291 12.1191C124.982 11.4551 124.828 10.6738 124.828 9.77539V9.76367C124.828 8.85742 124.984 8.07422 125.297 7.41406C125.613 6.75391 126.061 6.24414 126.639 5.88477C127.221 5.52539 127.91 5.3457 128.707 5.3457C129.508 5.3457 130.197 5.52539 130.775 5.88477C131.357 6.24414 131.805 6.75586 132.117 7.41992C132.43 8.08008 132.586 8.86133 132.586 9.76367V9.77539C132.586 10.6738 132.43 11.4551 132.117 12.1191C131.809 12.7793 131.363 13.291 130.781 13.6543C130.203 14.0176 129.512 14.1992 128.707 14.1992ZM128.707 13.2266C129.285 13.2266 129.783 13.084 130.201 12.7988C130.619 12.5137 130.941 12.1133 131.168 11.5977C131.395 11.0781 131.508 10.4707 131.508 9.77539V9.76367C131.508 9.06055 131.395 8.45117 131.168 7.93555C130.941 7.41992 130.619 7.02148 130.201 6.74023C129.783 6.45898 129.285 6.31836 128.707 6.31836C128.133 6.31836 127.637 6.45898 127.219 6.74023C126.801 7.02148 126.477 7.41992 126.246 7.93555C126.02 8.45117 125.906 9.06055 125.906 9.76367V9.77539C125.906 10.4707 126.018 11.0781 126.24 11.5977C126.463 12.1133 126.783 12.5137 127.201 12.7988C127.619 13.084 128.121 13.2266 128.707 13.2266ZM135.117 14.0586C134.91 14.0586 134.73 13.9844 134.578 13.8359C134.43 13.6836 134.355 13.5039 134.355 13.2969C134.355 13.0859 134.43 12.9062 134.578 12.7578C134.73 12.6094 134.91 12.5352 135.117 12.5352C135.328 12.5352 135.508 12.6094 135.656 12.7578C135.805 12.9062 135.879 13.0859 135.879 13.2969C135.879 13.5039 135.805 13.6836 135.656 13.8359C135.508 13.9844 135.328 14.0586 135.117 14.0586ZM135.117 9.52344C134.91 9.52344 134.73 9.44922 134.578 9.30078C134.43 9.14844 134.355 8.96875 134.355 8.76172C134.355 8.55078 134.43 8.37109 134.578 8.22266C134.73 8.07422 134.91 8 135.117 8C135.328 8 135.508 8.07422 135.656 8.22266C135.805 8.37109 135.879 8.55078 135.879 8.76172C135.879 8.96875 135.805 9.14844 135.656 9.30078C135.508 9.44922 135.328 9.52344 135.117 9.52344Z" fill="#565656"/>
</svg>
