<svg width="98" height="17" viewBox="0 0 98 17" fill="none" xmlns="http://www.w3.org/2000/svg">
<path d="M9.10827 6.28445C8.92553 6.46658 8.92553 6.76455 9.10876 6.94729C9.29137 7.12942 9.58886 7.12942 9.7716 6.94729C9.95421 6.76418 9.95421 6.46658 9.77111 6.28396C9.58935 6.1022 9.29211 6.10061 9.10827 6.28445Z" fill="#565656"/>
<path d="M5.97192 16L13.2187 8.8008V6.80386L13.0781 6.9446C12.3548 7.68044 11.2953 7.92824 10.3578 7.6758C9.7849 8.16677 8.963 8.12783 8.4453 7.61013C7.9016 7.05703 7.9016 6.16641 8.4453 5.6227C8.9984 5.0696 9.88903 5.0696 10.4327 5.6227C10.761 5.94143 10.8922 6.38198 10.8265 6.81326C11.4078 6.89773 11.9984 6.71023 12.4203 6.28835L13.2187 5.48208V2.84378H10.5734L11.9515 1.46011C12.6546 0.74771 13.8921 0.74771 14.5952 1.46011C15.3249 2.16958 15.1466 3.57095 14.4078 4.29141L13.2187 5.48208V6.80386L15.0735 4.95706C16.1874 3.84304 16.3536 1.86807 15.261 0.794585C14.2015 -0.264862 12.3453 -0.264862 11.2859 0.794585L9.25158 2.84378H7.25475L0 10.0281L5.97192 16ZM5.46411 7.28201L8.77343 10.5914L8.11718 11.2571L4.79846 7.93825L5.46411 7.28201ZM7.45153 11.9226L6.78588 12.5789L3.47656 9.26955L4.13281 8.6039L7.45153 11.9226Z" fill="#565656"/>
<path d="M28.4824 14.1992C27.7168 14.1992 27.0547 14.0195 26.4961 13.6602C25.9375 13.3008 25.5059 12.791 25.2012 12.1309C24.9004 11.4707 24.75 10.6875 24.75 9.78125V9.76953C24.75 8.85938 24.9004 8.07422 25.2012 7.41406C25.5059 6.75391 25.9355 6.24414 26.4902 5.88477C27.0488 5.52539 27.7109 5.3457 28.4766 5.3457C29.0703 5.3457 29.6094 5.46289 30.0938 5.69727C30.582 5.92773 30.9844 6.25 31.3008 6.66406C31.6172 7.07422 31.8164 7.54883 31.8984 8.08789L31.8926 8.09961H30.832L30.8262 8.08789C30.7324 7.72461 30.5742 7.41211 30.3516 7.15039C30.1289 6.88477 29.8574 6.67969 29.5371 6.53516C29.2207 6.39062 28.8672 6.31836 28.4766 6.31836C27.9375 6.31836 27.4688 6.45898 27.0703 6.74023C26.6758 7.02148 26.3711 7.41992 26.1562 7.93555C25.9414 8.45117 25.834 9.0625 25.834 9.76953V9.78125C25.834 10.4844 25.9414 11.0938 26.1562 11.6094C26.3711 12.125 26.6758 12.5234 27.0703 12.8047C27.4688 13.0859 27.9395 13.2266 28.4824 13.2266C28.877 13.2266 29.2344 13.1641 29.5547 13.0391C29.875 12.9102 30.1445 12.7285 30.3633 12.4941C30.582 12.2559 30.7344 11.9746 30.8203 11.6504L30.832 11.6387H31.8984V11.6504C31.8047 12.166 31.6016 12.6152 31.2891 12.998C30.9766 13.377 30.5801 13.6719 30.0996 13.8828C29.623 14.0938 29.084 14.1992 28.4824 14.1992ZM33.668 14V5.54492H38.9062V6.49414H34.7227V9.20703H38.6895V10.1445H34.7227V13.0508H38.9062V14H33.668ZM40.8164 14V5.54492H41.8418L46.6875 12.4941L45.9844 12.125H46.5234V5.54492H47.5664V14H46.541L41.6953 7.07422L42.3984 7.44336H41.8594V14H40.8164ZM49.0488 14L52.166 5.54492H52.9746V6.91016H52.6406L50.1562 14H49.0488ZM50.4609 11.5801L50.7891 10.6836H54.6094L54.9375 11.5801H50.4609ZM55.2188 14L52.7344 6.91016V5.54492H53.209L56.3262 14H55.2188ZM63.1875 16.1094C62.8086 15.6055 62.4961 15.0703 62.25 14.5039C62.0039 13.9375 61.8203 13.334 61.6992 12.6934C61.582 12.0527 61.5234 11.3691 61.5234 10.6426C61.5234 9.91602 61.582 9.23438 61.6992 8.59766C61.8164 7.95703 61.998 7.35352 62.2441 6.78711C62.4902 6.2168 62.8047 5.67969 63.1875 5.17578H64.043C63.832 5.44531 63.6348 5.78516 63.4512 6.19531C63.2715 6.60547 63.1152 7.05859 62.9824 7.55469C62.8496 8.04688 62.7461 8.55859 62.6719 9.08984C62.5977 9.61719 62.5605 10.1348 62.5605 10.6426C62.5605 11.1543 62.5977 11.6758 62.6719 12.207C62.7461 12.7344 62.8496 13.2461 62.9824 13.7422C63.1152 14.2344 63.2715 14.6836 63.4512 15.0898C63.6348 15.5 63.832 15.8398 64.043 16.1094H63.1875ZM65.7656 14V5.54492H68.9941C69.5371 5.54492 70.0098 5.65039 70.4121 5.86133C70.8184 6.06836 71.1328 6.35938 71.3555 6.73438C71.5781 7.10938 71.6895 7.55078 71.6895 8.05859V8.07031C71.6895 8.65625 71.5391 9.16406 71.2383 9.59375C70.9375 10.0234 70.5215 10.3223 69.9902 10.4902L71.9473 14H70.7109L68.9004 10.6543C68.8926 10.6543 68.8828 10.6543 68.8711 10.6543C68.8594 10.6543 68.8496 10.6543 68.8418 10.6543H66.8203V14H65.7656ZM66.8203 9.7168H68.9004C69.4434 9.7168 69.8613 9.57812 70.1543 9.30078C70.4512 9.01953 70.5996 8.62109 70.5996 8.10547V8.09375C70.5996 7.58984 70.4453 7.19531 70.1367 6.91016C69.8281 6.625 69.4004 6.48242 68.8535 6.48242H66.8203V9.7168ZM77.1562 14.1992C76.3477 14.1992 75.6543 14.0195 75.0762 13.6602C74.498 13.2969 74.0527 12.7832 73.7402 12.1191C73.4316 11.4551 73.2773 10.6738 73.2773 9.77539V9.76367C73.2773 8.85742 73.4336 8.07422 73.7461 7.41406C74.0625 6.75391 74.5098 6.24414 75.0879 5.88477C75.6699 5.52539 76.3594 5.3457 77.1562 5.3457C77.957 5.3457 78.6465 5.52539 79.2246 5.88477C79.8066 6.24414 80.2539 6.75586 80.5664 7.41992C80.8789 8.08008 81.0352 8.86133 81.0352 9.76367V9.77539C81.0352 10.6738 80.8789 11.4551 80.5664 12.1191C80.2578 12.7793 79.8125 13.291 79.2305 13.6543C78.6523 14.0176 77.9609 14.1992 77.1562 14.1992ZM77.1562 13.2266C77.7344 13.2266 78.2324 13.084 78.6504 12.7988C79.0684 12.5137 79.3906 12.1133 79.6172 11.5977C79.8438 11.0781 79.957 10.4707 79.957 9.77539V9.76367C79.957 9.06055 79.8438 8.45117 79.6172 7.93555C79.3906 7.41992 79.0684 7.02148 78.6504 6.74023C78.2324 6.45898 77.7344 6.31836 77.1562 6.31836C76.582 6.31836 76.0859 6.45898 75.668 6.74023C75.25 7.02148 74.9258 7.41992 74.6953 7.93555C74.4688 8.45117 74.3555 9.06055 74.3555 9.76367V9.77539C74.3555 10.4707 74.4668 11.0781 74.6895 11.5977C74.9121 12.1133 75.2324 12.5137 75.6504 12.7988C76.0684 13.084 76.5703 13.2266 77.1562 13.2266ZM83.8008 11.1758L83.7422 9.65234H84.0117L87.7148 5.54492H89.0391L85.541 9.32422L85.0488 9.79883L83.8008 11.1758ZM82.8633 14V5.54492H83.918V14H82.8633ZM87.9844 14L84.8262 9.78711L85.5527 9.05469L89.3496 14H87.9844ZM91.1953 16.1094H90.3398C90.5508 15.8398 90.7461 15.5 90.9258 15.0898C91.1094 14.6836 91.2676 14.2344 91.4004 13.7422C91.5332 13.2461 91.6367 12.7344 91.7109 12.207C91.7852 11.6758 91.8223 11.1543 91.8223 10.6426C91.8223 10.1348 91.7852 9.61719 91.7109 9.08984C91.6367 8.55859 91.5332 8.04688 91.4004 7.55469C91.2676 7.05859 91.1094 6.60547 90.9258 6.19531C90.7461 5.78516 90.5508 5.44531 90.3398 5.17578H91.1953C91.5781 5.67969 91.8926 6.2168 92.1387 6.78711C92.3848 7.35352 92.5664 7.95703 92.6836 8.59766C92.8008 9.23438 92.8594 9.91602 92.8594 10.6426C92.8594 11.3691 92.7988 12.0527 92.6777 12.6934C92.5605 13.334 92.3789 13.9375 92.1328 14.5039C91.8906 15.0703 91.5781 15.6055 91.1953 16.1094ZM96.0586 14.0586C95.8516 14.0586 95.6719 13.9844 95.5195 13.8359C95.3711 13.6836 95.2969 13.5039 95.2969 13.2969C95.2969 13.0859 95.3711 12.9062 95.5195 12.7578C95.6719 12.6094 95.8516 12.5352 96.0586 12.5352C96.2695 12.5352 96.4492 12.6094 96.5977 12.7578C96.7461 12.9062 96.8203 13.0859 96.8203 13.2969C96.8203 13.5039 96.7461 13.6836 96.5977 13.8359C96.4492 13.9844 96.2695 14.0586 96.0586 14.0586ZM96.0586 9.52344C95.8516 9.52344 95.6719 9.44922 95.5195 9.30078C95.3711 9.14844 95.2969 8.96875 95.2969 8.76172C95.2969 8.55078 95.3711 8.37109 95.5195 8.22266C95.6719 8.07422 95.8516 8 96.0586 8C96.2695 8 96.4492 8.07422 96.5977 8.22266C96.7461 8.37109 96.8203 8.55078 96.8203 8.76172C96.8203 8.96875 96.7461 9.14844 96.5977 9.30078C96.4492 9.44922 96.2695 9.52344 96.0586 9.52344Z" fill="#565656"/>
</svg>
