<svg width="25" height="24" viewBox="0 0 25 24" fill="none" xmlns="http://www.w3.org/2000/svg">
<path d="M23.9773 7.05607C23.9211 5.78085 23.7149 4.90416 23.4195 4.14449C23.1147 3.33812 22.6459 2.61617 22.0316 2.01602C21.4315 1.40652 20.7048 0.932922 19.9078 0.632936C19.1437 0.337529 18.2716 0.131312 16.9964 0.0750879C15.7116 0.0141019 15.3038 0 12.0453 0C8.78687 0 8.37901 0.0141019 7.09903 0.0703262C5.82382 0.126551 4.94712 0.332951 4.18764 0.628174C3.38108 0.932922 2.65914 1.40176 2.05899 2.01602C1.44949 2.61617 0.976073 3.34288 0.675905 4.13991C0.380498 4.90416 0.174281 5.77609 0.118057 7.0513C0.0570706 8.33604 0.0429688 8.7439 0.0429688 12.0023C0.0429688 15.2608 0.0570706 15.6686 0.113295 16.9486C0.169519 18.2238 0.37592 19.1005 0.671326 19.8602C0.976073 20.6666 1.44949 21.3885 2.05899 21.9887C2.65914 22.5982 3.38585 23.0718 4.18288 23.3718C4.94712 23.6672 5.81906 23.8734 7.09446 23.9296C8.37425 23.986 8.78229 23.9999 12.0407 23.9999C15.2992 23.9999 15.707 23.986 16.987 23.9296C18.2622 23.8734 19.1389 23.6672 19.8984 23.3718C21.5113 22.7482 22.7865 21.4729 23.4101 19.8602C23.7054 19.096 23.9118 18.2238 23.968 16.9486C24.0242 15.6686 24.0383 15.2608 24.0383 12.0023C24.0383 8.7439 24.0336 8.33604 23.9773 7.05607ZM21.8161 16.8549C21.7644 18.027 21.5676 18.6599 21.4035 19.0819C21.0002 20.1274 20.1704 20.9572 19.1248 21.3605C18.7029 21.5246 18.0654 21.7215 16.8978 21.7729C15.632 21.8293 15.2523 21.8433 12.0501 21.8433C8.84785 21.8433 8.46344 21.8293 7.20214 21.7729C6.03004 21.7215 5.3971 21.5246 4.97515 21.3605C4.45484 21.1682 3.98124 20.8635 3.59682 20.4649C3.19831 20.0758 2.89356 19.6069 2.70126 19.0866C2.53717 18.6647 2.34029 18.027 2.28883 16.8596C2.23242 15.5937 2.2185 15.2139 2.2185 12.0117C2.2185 8.80946 2.23242 8.42505 2.28883 7.16394C2.34029 5.99183 2.53717 5.3589 2.70126 4.93694C2.89356 4.41645 3.19831 3.94303 3.60159 3.55843C3.99058 3.15992 4.45942 2.85517 4.97991 2.66306C5.40187 2.49896 6.03956 2.30209 7.2069 2.25044C8.47278 2.19422 8.85261 2.18011 12.0547 2.18011C15.2616 2.18011 15.6413 2.19422 16.9026 2.25044C18.0747 2.30209 18.7076 2.49896 19.1296 2.66306C19.6499 2.85517 20.1235 3.15992 20.5079 3.55843C20.9064 3.94761 21.2112 4.41645 21.4035 4.93694C21.5676 5.3589 21.7644 5.99641 21.8161 7.16394C21.8723 8.42981 21.8864 8.80946 21.8864 12.0117C21.8864 15.2139 21.8723 15.589 21.8161 16.8549Z" fill="#565656"/>
<path d="M12.0453 5.8374C8.64159 5.8374 5.88 8.59881 5.88 12.0027C5.88 15.4065 8.64159 18.1679 12.0453 18.1679C15.4491 18.1679 18.2105 15.4065 18.2105 12.0027C18.2105 8.59881 15.4491 5.8374 12.0453 5.8374ZM12.0453 16.0019C9.83714 16.0019 8.04602 14.211 8.04602 12.0027C8.04602 9.79435 9.83714 8.00341 12.0453 8.00341C14.2536 8.00341 16.0445 9.79435 16.0445 12.0027C16.0445 14.211 14.2536 16.0019 12.0453 16.0019Z" fill="#565656"/>
<path d="M19.8938 5.5936C19.8938 6.38844 19.2493 7.03291 18.4543 7.03291C17.6595 7.03291 17.015 6.38844 17.015 5.5936C17.015 4.79859 17.6595 4.1543 18.4543 4.1543C19.2493 4.1543 19.8938 4.79859 19.8938 5.5936Z" fill="#565656"/>
</svg>
