<svg width="136" height="24" viewBox="0 0 136 24" fill="none" xmlns="http://www.w3.org/2000/svg">
<path d="M12 0C5.37066 0 0 5.37066 0 12C0 18.6293 5.37066 24 12 24C18.6293 24 24 18.6293 24 12C24 5.37066 18.6293 0 12 0ZM19.5307 10.64L15.792 14.1653L16.9333 18.256C17.1627 19.0827 16.7574 19.3974 16.016 18.9547L12 16.5333L7.97867 18.9493C7.24264 19.392 6.81069 19.0773 7.01866 18.24L8.12266 13.792L4.50131 10.5973C3.85599 10.0267 4.03197 9.56799 4.89066 9.56799H9.29064L11.3813 4.70402C11.7226 3.91467 12.2666 3.91467 12.5973 4.70933L14.6399 9.56799H19.0986C19.9626 9.57334 20.1547 10.0533 19.5307 10.64Z" fill="#3235E7"/>
<path d="M40 0C33.3707 0 28 5.37066 28 12C28 18.6293 33.3707 24 40 24C46.6293 24 52 18.6293 52 12C52 5.37066 46.6293 0 40 0ZM47.5307 10.64L43.792 14.1653L44.9333 18.256C45.1627 19.0827 44.7574 19.3974 44.016 18.9547L40 16.5333L35.9787 18.9493C35.2426 19.392 34.8107 19.0773 35.0187 18.24L36.1227 13.792L32.5013 10.5973C31.856 10.0267 32.032 9.56799 32.8907 9.56799H37.2906L39.3813 4.70402C39.7226 3.91467 40.2666 3.91467 40.5973 4.70933L42.6399 9.56799H47.0986C47.9626 9.57334 48.1547 10.0533 47.5307 10.64Z" fill="#3235E7"/>
<path d="M68 0C61.3707 0 56 5.37066 56 12C56 18.6293 61.3707 24 68 24C74.6293 24 80 18.6293 80 12C80 5.37066 74.6293 0 68 0ZM75.5307 10.64L71.792 14.1653L72.9333 18.256C73.1627 19.0827 72.7574 19.3974 72.016 18.9547L68 16.5333L63.9787 18.9493C63.2426 19.392 62.8107 19.0773 63.0187 18.24L64.1227 13.792L60.5013 10.5973C59.856 10.0267 60.032 9.56799 60.8907 9.56799H65.2906L67.3813 4.70402C67.7226 3.91467 68.2666 3.91467 68.5973 4.70933L70.6399 9.56799H75.0986C75.9626 9.57334 76.1547 10.0533 75.5307 10.64Z" fill="#3235E7"/>
<path d="M96 0C89.3707 0 84 5.37066 84 12C84 18.6293 89.3707 24 96 24C102.629 24 108 18.6293 108 12C108 5.37066 102.629 0 96 0ZM103.531 10.64L99.792 14.1653L100.933 18.256C101.163 19.0827 100.757 19.3974 100.016 18.9547L96 16.5333L91.9787 18.9493C91.2426 19.392 90.8107 19.0773 91.0187 18.24L92.1227 13.792L88.5013 10.5973C87.856 10.0267 88.032 9.56799 88.8907 9.56799H93.2906L95.3813 4.70402C95.7226 3.91467 96.2666 3.91467 96.5973 4.70933L98.6399 9.56799H103.099C103.963 9.57334 104.155 10.0533 103.531 10.64Z" fill="#3235E7"/>
<path d="M124 0C117.371 0 112 5.37066 112 12C112 18.6293 117.371 24 124 24C130.629 24 136 18.6293 136 12C136 5.37066 130.629 0 124 0ZM131.531 10.64L127.792 14.1653L128.933 18.256C129.163 19.0827 128.757 19.3974 128.016 18.9547L124 16.5333L119.979 18.9493C119.243 19.392 118.811 19.0773 119.019 18.24L120.123 13.792L116.501 10.5973C115.856 10.0267 116.032 9.56799 116.891 9.56799H121.291L123.381 4.70402C123.723 3.91467 124.267 3.91467 124.597 4.70933L126.64 9.56799H131.099C131.963 9.57334 132.155 10.0533 131.531 10.64Z" fill="#BCBDFF"/>
</svg>
